<?xml version="1.0" standalone="no"?><!DOCTYPE svg PUBLIC "-//W3C//DTD SVG 1.1//EN" "http://www.w3.org/Graphics/SVG/1.1/DTD/svg11.dtd"><svg t="1753864004558" class="icon" viewBox="0 0 1024 1024" version="1.1" xmlns="http://www.w3.org/2000/svg" p-id="4460" xmlns:xlink="http://www.w3.org/1999/xlink" width="200" height="200"><path d="M494.32 219.44c-0.03-2.82 0.16-5.64-0.18-8.45-0.5-2.97-3.47-5.09-6.43-4.82-72.21-0.01-144.41-0.04-216.63 0.02-21.24 0.02-42.09 10.44-55.05 27.25-9.86 12.55-15.19 28.52-14.92 44.47-0.01 125.57-0.04 251.14 0.02 376.71-0.23 3.56 3.11 6.52 6.6 6.23 19.21 0.03 38.43 0.04 57.65 0 2.93 0.15 5.89-1.93 6.34-4.9 0.35-3.02 0.13-6.07 0.17-9.08 0.01-123.33-0.01-246.66 0.01-369.98 50.54-0.02 101.07-0.02 151.61 0 0.04 125.91-0.03 251.83 0.03 377.74-0.19 3.53 3.09 6.5 6.56 6.22 19.17 0.03 38.35 0.03 57.52 0 3.95 0.37 7.26-3.34 6.69-7.23V219.44zM822.93 325.8c1.65-1.39 2.04-3.63 1.98-5.68-0.02-18.87 0-37.73-0.02-56.6 0.46-3.76-2.87-7.25-6.65-6.82-48.99-0.02-97.99 0-146.98-0.01-0.05-14.99 0.03-29.97-0.04-44.95 0.3-3.48-2.69-6.81-6.25-6.56-19.21-0.09-38.43-0.03-57.65-0.03-3.77-0.47-7.27 2.86-6.87 6.66-0.02 89.06 0 178.12-0.01 267.19-17.81 0-35.63 0.01-53.43-0.01-2.09-0.1-4.36 0.34-5.72 2.07-2.15 2.38-1.37 5.79-1.51 8.7 0.04 105.08 0.02 210.15 0.01 315.23 0.18 3.16-0.78 6.92 1.61 9.51 1.37 1.61 3.56 2.02 5.58 1.99h191.68c9.95-0.07 20.05 0.52 29.79-1.94 16.53-3.86 31.49-13.96 41.3-27.81 8.55-11.88 13.18-26.49 13.12-41.12 0.01-86.59 0-173.18 0.01-259.77 0.45-3.72-2.82-7.27-6.6-6.84-48.34-0.02-96.68 0-145.02-0.01-0.02-50.53-0.02-101.05-0.01-151.58 47.7-0.01 95.39-0.03 143.09 0.01 2.87-0.13 6.27 0.55 8.59-1.63z m-70.8 223.92c0.01 65.32 0.01 130.64 0 195.97-47.19 0.01-94.38 0.02-141.58 0 0.04-65.34-0.1-130.68 0.07-196.02 47.17 0.1 94.34 0 141.51 0.05z" p-id="4461" fill="#2c2c2c"></path><path d="M490.55 746.59c-23.13-2.7-45.76-11.42-63.82-26.3-22.85-18.58-37.27-46.29-41.75-75.2-2.44-13.97-1.78-28.2-1.87-42.32V330.68c-0.03-2.87 0.18-5.77-0.19-8.62-0.53-2.92-3.49-4.99-6.41-4.73-19.19-0.02-38.39-0.02-57.57 0-3.67-0.39-6.97 2.92-6.61 6.58-0.03 99.67 0.01 199.35-0.02 299.03-0.24 29.84-11.58 59.42-31.37 81.76-19.8 22.7-47.98 37.96-77.87 41.85-1.26 1.67-2.21 3.58-1.97 5.75 0.05 19.52-0.07 39.05 0.06 58.57-0.04 3.87 3.65 7.34 7.58 6.55 18.92-1.74 37.55-6.53 55.04-13.94 33.06-14.02 61.55-37.94 82.27-67.13 0.56-0.71 1.01-1.54 1.79-2 11.35 16.02 24.71 30.67 40.08 42.91 26.83 21.59 59.77 35.42 93.96 39.49 3.24 0.27 7.15 1.59 9.85-0.96 2.14-1.63 2.75-4.4 2.61-6.95-0.04-18.86 0-37.72-0.02-56.57 0.14-2.42-0.74-5.9-3.77-5.68z" p-id="4462" fill="#2c2c2c"></path></svg>