<?xml version="1.0" standalone="no"?><!DOCTYPE svg PUBLIC "-//W3C//DTD SVG 1.1//EN" "http://www.w3.org/Graphics/SVG/1.1/DTD/svg11.dtd"><svg t="1753863962596" class="icon" viewBox="0 0 1024 1024" version="1.1" xmlns="http://www.w3.org/2000/svg" p-id="1506" xmlns:xlink="http://www.w3.org/1999/xlink" width="200" height="200"><path d="M819.8144 806.912c-0.2048-58.9824-0.2048-117.76-0.4096-176.7424-4.3008-2.2528-30.1056 16.5888-36.6592 19.8656-6.7584 4.096-13.7216 8.3968-20.48 12.4928-16.5888 7.9872-33.1776 16.1792-49.7664 24.1664-9.6256 3.4816-19.0464 7.168-28.672 10.6496-7.5776 2.2528-15.9744 3.4816-21.9136 7.3728-2.048 8.3968-0.8192 20.6848-0.8192 30.5152v100.352c-5.9392 3.2768-20.6848 1.024-28.8768 1.024h-70.0416c-87.6544-0.2048-175.3088-0.2048-262.9632-0.4096-2.4576-4.096-0.8192-25.6-0.8192-33.3824V381.5424c5.3248-2.8672 18.2272-1.024 26.4192-1.024h62.6688c90.7264 0.2048 181.4528 0.2048 271.9744 0.4096 0.4096 0.2048 0.8192 0.2048 1.024 0.4096 2.048 11.8784-1.8432 28.0576 1.024 39.3216 5.9392 2.048 31.9488-13.7216 39.3216-16.5888 22.1184-8.6016 44.8512-16.1792 68.608-23.552 15.36-4.7104 32.1536-5.7344 48.3328-9.6256 3.072-5.12 2.6624-21.2992 0.8192-27.4432-8.192-4.7104-32.768-4.096-44.4416-6.144-25.3952-4.5056-52.224-5.5296-78.4384-10.24-7.3728-1.4336-25.1904-5.7344-32.3584-4.096-0.6144 0.4096-1.2288 0.8192-1.8432 1.024-1.024 4.5056 0.2048 12.6976-1.024 16.5888H449.9456c-0.4096-0.2048-0.8192-0.4096-1.024-0.8192 27.0336-44.4416 54.272-88.6784 81.3056-133.12 7.168-11.264 13.5168-22.7328 20.48-33.792 2.2528-3.4816 4.096-10.8544 8.3968-12.0832h321.9456c8.3968 0 19.6608 1.2288 26.8288-0.8192 10.0352-14.9504-11.4688-19.8656-18.432-24.576-22.528-12.0832-45.056-24.1664-67.3792-36.2496-6.3488-3.8912-21.0944-14.7456-28.8768-14.9504-16.7936 12.0832-33.792 24.1664-50.5856 36.2496-49.9712 0.2048-99.9424 0.2048-149.9136 0.4096H97.8944c-10.6496 0-39.936-2.048-46.4896 0.8192-1.2288 6.3488 3.8912 10.4448 5.9392 14.9504 2.2528 4.9152 8.3968 21.0944 12.0832 23.552 3.4816 2.2528 11.4688 0.8192 16.7936 0.8192h292.864l0.8192 1.4336c1.6384 4.3008-1.6384 10.8544-2.6624 14.7456-2.6624 12.288-3.8912 24.576-6.5536 35.84-1.6384 10.24-3.2768 20.2752-4.7104 30.5152-4.5056 20.48-7.9872 43.2128-12.4928 63.8976-2.4576 11.4688-2.6624 21.9136-5.5296 32.5632-6.5536 3.4816-46.4896 1.024-57.5488 1.024-20.0704 0-36.864-3.072-54.272-6.144l-60.2112-7.3728c-10.6496-1.8432-24.1664-5.3248-35.2256-4.3008-4.3008 6.7584-1.8432 33.1776-1.8432 44.032v514.8672c0 15.5648-2.048 34.816 0.8192 49.152 6.144 4.096 30.5152 1.8432 40.7552 1.8432h77.824c12.0832 0 27.8528 1.8432 38.5024-0.8192 6.7584-11.264-2.4576-43.4176 2.6624-55.296h360.448c0.4096 0.2048 0.8192 0.2048 1.024 0.4096 2.6624 15.36-3.8912 42.5984 1.8432 55.0912 9.0112 2.2528 22.3232 0.8192 32.5632 0.8192h71.4752c16.7936-0.2048 33.792-0.2048 50.5856-0.4096 0.6144-0.4096 1.2288-0.8192 1.8432-1.024 2.4576-11.8784 0.8192-28.4672 0.8192-41.7792V806.912z m131.2768-408.7808c-19.2512 0.8192-38.7072 1.6384-57.9584 2.6624-16.5888 2.048-32.9728 3.8912-49.5616 5.9392-31.9488 5.9392-63.8976 10.8544-92.7744 20.8896-30.3104 10.4448-60.6208 20.0704-88.064 33.792-106.2912 53.4528-193.1264 124.928-258.4576 219.3408-13.5168 19.6608-27.2384 39.7312-39.936 60.416l-19.0464 36.2496c-6.3488 10.8544-17.408 31.5392-20.0704 44.4416 0.2048 0.2048 0.2048 0.4096 0.4096 0.8192 4.9152-1.2288 27.0336-26.4192 31.1296-31.5392l57.9584-60.416c4.9152-5.9392 21.504-25.6 27.4432-28.672 4.3008-1.6384 24.9856 2.6624 31.5392 3.6864 19.2512 2.8672 52.224 1.8432 70.4512-1.4336 35.84-6.7584 67.7888-14.5408 97.4848-26.8288 10.24-4.7104 20.2752-9.6256 30.5152-14.336 5.5296-3.072 11.264-6.144 16.7936-9.216 1.024-1.4336 1.4336-1.4336 1.4336-4.096-16.7936-11.8784-43.008-15.36-58.9824-27.8528v-0.4096c5.7344-2.6624 17.6128 1.2288 24.1664 2.2528 15.36 2.4576 41.1648 2.048 56.1152-0.4096 58.368-9.6256 98.7136-24.7808 137.4208-53.248 8.6016-6.3488 31.3344-21.2992 35.6352-30.1056 0.2048-0.8192 0.2048-1.6384 0.4096-2.6624-4.3008-2.4576-11.0592-1.4336-16.7936-2.6624-12.0832-2.048-24.1664-3.8912-36.2496-5.9392-7.168-1.2288-14.336-0.6144-19.8656-2.8672v-1.024c6.5536-3.4816 16.9984-2.048 25.3952-3.6864 10.4448-2.2528 21.0944-4.7104 31.5392-6.9632 45.056-12.9024 79.0528-38.0928 103.424-71.8848 7.9872-11.264 18.2272-25.8048 20.8896-41.3696-2.6624-3.6864-35.2256-2.8672-42.3936-2.8672z" fill="#2c2c2c" p-id="1507"></path></svg>