<?xml version="1.0" standalone="no"?><!DOCTYPE svg PUBLIC "-//W3C//DTD SVG 1.1//EN" "http://www.w3.org/Graphics/SVG/1.1/DTD/svg11.dtd"><svg t="1753864081088" class="icon" viewBox="0 0 1024 1024" version="1.1" xmlns="http://www.w3.org/2000/svg" p-id="15428" xmlns:xlink="http://www.w3.org/1999/xlink" width="200" height="200"><path d="M931.20170748 302.92642479c-121.21037638-245.66747547-425.31856522-338.73972906-662.32815549-201.29582351-215.36487082 124.45708519-298.69701242 398.26268316-188.30898898 620.12097154 121.21037638 245.66747547 425.31856522 338.73972906 662.32815565 201.29580937 215.36487082-123.37485821 298.69701242-397.18044239 188.30898882-620.1209574z m-137.44391962-50.86508328c64.93413074 64.93413074-57.35848659 111.47026449-82.24990056 111.47026447-8.65788503 0-16.23352901-3.24670853-20.56247878-7.57564427-4.32893532-4.32893532-7.57564411-10.82235274-7.57564404-20.56247832-1.08224086-27.05588192 45.45389291-148.26627247 110.38802338-83.33214188z m-323.58842638-121.21037638c90.9077858-14.0690614 57.35848659 111.47026449 41.12494302 132.03274317-5.4111763 7.57564411-11.90459395 10.82235274-18.39799689 11.9045797-5.4111763 1.08224086-14.0690614 0-21.64470535-5.4111766-19.48023775-14.0690614-90.9077858-123.37485821-1.08224078-138.52614627z m-178.56886299 493.49940471c-9.74012598 23.80918725-102.81237951 115.79919984-135.27945204 30.30260446-32.46707229-85.49660941 97.40120303-79.0031921 121.21039053-67.09861259 8.65788503 4.32893532 12.98682071 9.74012598 15.15128824 15.15130241 2.16446773 5.4111763 2.16446773 12.98682071-1.08222673 21.64470572zM315.40967136 388.42303418c-3.24670853 5.4111763-8.65788503 9.74012598-17.31576972 12.98682056-24.89141411 7.57564411-154.75968956-6.4934174-108.22354195-85.4966094 46.53613383-79.0031921 122.29261733 25.97365508 128.78602064 51.94731032 1.08224086 7.57564411 0 15.15130239-3.24670897 20.56247852z m80.08543337 502.15728967c-86.57885044-28.138123 0-125.53932602 23.80918727-136.36167865 8.65788503-4.32893532 16.23352901-4.32893532 21.64470557-2.16446771s11.90459395 6.4934174 16.2335291 14.0690613c11.90459395 22.72694654 24.89141411 152.59520786-61.68742194 124.45708506z m272.72335732-303.02596214l-200.2135686 107.14132921c-45.45389291 23.80918725-99.56567068-9.74012598-97.40120294-60.60519531l7.57564403-227.26946434c2.16446773-50.86506909 58.4407136-81.16765988 101.73015279-54.11177789l192.63792429 120.12814935c42.20718415 27.05588192 40.04271652 90.9077858-4.32894957 114.71695898z m59.52295432 258.654296c-76.83872434 49.78282836-97.40120303-79.0031921-90.90778586-103.89460623 2.16446773-8.65788503 6.4934174-15.15130239 11.90459366-18.39801095 5.4111763-3.24670853 12.98682071-5.4111763 21.64470548-3.24669457 25.97365508 4.32893532 134.19721113 75.75648355 57.35848672 125.53931175z m181.8155715-273.80558417c-9.74012598 90.9077858-122.29261733 25.97365508-138.52614671 5.4111766-5.4111763-7.57564411-7.57564411-15.15130239-6.49341695-20.56247875 1.08224086-5.4111763 4.32893532-12.98682071 10.8223668-19.48023799 19.48023775-16.23352901 142.85509611-56.27624574 134.19719686 34.63154014z" fill="#2c2c2c" p-id="15429"></path></svg>